# xmcd
#
# Track frame offsets: 
#        150
#        13157
#        24488
#        34279
#        49758
#
# Disc length: 823 seconds
#
# Revision: 0
# Processed by: cddbd v1.5.2PL0 Copyright (c) Steve Scherf et al.
# Submitted via: ExactAudioCopy v1.0b3
#
DISCID=39033505
DTITLE=Kiskin' Zhar - II
DYEAR=2012
DGENRE=Punk Rock
TTITLE0=Взорванная крыса
TTITLE1=Цыганская баба
TTITLE2=Богемен
TTITLE3=Ты гудок
TTITLE4=2013
EXTD=
EXTT0=
EXTT1=
EXTT2=
EXTT3=
EXTT4=
PLAYORDER=
